<?xml version="1.0" encoding="utf-8"?>
<!-- Generator: Adobe Illustrator 21.1.0, SVG Export Plug-In . SVG Version: 6.00 Build 0)  -->
<svg version="1.1" id="Layer_1" xmlns="http://www.w3.org/2000/svg" xmlns:xlink="http://www.w3.org/1999/xlink" x="0px" y="0px"
	 viewBox="0 0 100.9 130.5" style="enable-background:new 0 0 100.9 130.5;" xml:space="preserve">
<style type="text/css">
	.st0{fill:#3D58A6;}
</style>
<path class="st0" d="M92.4,84.1c-0.8-0.7-2.1-0.6-2.8,0.2l-13.7,16.1l-8.7-6.9c-0.9-0.7-2.1-0.5-2.8,0.3c-0.7,0.9-0.5,2.1,0.3,2.8
	l10.2,8.1c0.4,0.3,0.8,0.4,1.2,0.4c0.6,0,1.1-0.2,1.5-0.7l14.9-17.5C93.4,86.1,93.3,84.8,92.4,84.1z M78.6,117.3c-1.1,0-2,0.9-2,2
	c0,3.3-2.7,5.9-5.9,5.9H18.2c-3.3,0-5.9-2.6-5.9-5.9V11.4c0-3.3,2.7-5.9,5.9-5.9h52.5c3.3,0,5.9,2.6,5.9,5.9v60.3c0,1.1,0.9,2,2,2
	c1.1,0,2-0.9,2-2V38.1c1.5-0.3,2.6-1.6,2.6-3.2v-8.6c0-1.6-1.1-2.9-2.6-3.2V11.4c0-5.4-4.4-9.8-9.9-9.8H18.2c-5.5,0-9.9,4.4-9.9,9.8
	v107.8c0,5.4,4.4,9.8,9.9,9.8h52.5c5,0,9.2-3.7,9.8-8.6c0.1-0.2,0.1-0.4,0.1-0.6v-0.7C80.5,118.2,79.7,117.3,78.6,117.3z M54.3,11.6
	c1.1,0,2-0.9,2-2s-0.9-2-2-2H34.5c-1.1,0-2,0.9-2,2s0.9,2,2,2H54.3z M38.9,118.4c0,3,2.5,5.5,5.5,5.5c3,0,5.5-2.5,5.5-5.5
	s-2.5-5.5-5.5-5.5C41.4,112.9,38.9,115.4,38.9,118.4z M46,118.4c0,0.8-0.7,1.5-1.5,1.5s-1.5-0.7-1.5-1.5c0-0.8,0.7-1.5,1.5-1.5
	S46,117.5,46,118.4z M68,73.5c1.2,0,2.2-1,2.2-2.2V27.3c0-3.7-3.5-6.9-7.6-6.9H26.9c-4.2,0-7.6,3.4-7.6,7.5v73.5
	c0,4.2,3.4,7.5,7.6,7.5h31.2c1.2,0,2.2-1,2.2-2.2s-1-2.2-2.2-2.2H26.9c-1.8,0-3.2-1.4-3.2-3.2V28c0-1.8,1.4-3.2,3.2-3.2h35.7
	c1.9,0,3.2,1.5,3.2,2.5v44.1C65.9,72.6,66.8,73.5,68,73.5z"/>
</svg>
