<?xml version="1.0" encoding="utf-8"?>
<!-- Generator: Adobe Illustrator 21.1.0, SVG Export Plug-In . SVG Version: 6.00 Build 0)  -->
<svg version="1.1" id="Layer_1" xmlns="http://www.w3.org/2000/svg" xmlns:xlink="http://www.w3.org/1999/xlink" x="0px" y="0px"
	 viewBox="0 0 52 52" style="enable-background:new 0 0 52 52;" xml:space="preserve">
<style type="text/css">
	.st0{fill:none;}
	.st1{fill:#EE4036;}
</style>
<rect class="st0" width="52" height="52"/>
<path class="st1" d="M46,42.5l-9.6-9.6c0.8-1,1.4-2.2,1.9-3.4C42,21,38,11.1,29.4,7.4c-2.1-0.9-4.3-1.3-6.6-1.3l0,0
	C13.5,6.1,6,13.7,6,23c0,6.8,4.1,12.9,10.3,15.5c5.8,2.4,12.1,1.4,16.8-2.2l9.5,9.5L46,42.5z M10.8,23c0-6.7,5.4-12.1,12.1-12.1
	c6.7,0,12.1,5.4,12.1,12.1S29.5,35,22.8,35C16.2,35,10.8,29.6,10.8,23z"/>
</svg>
