<?xml version="1.0" encoding="utf-8"?>
<!-- Generator: Adobe Illustrator 21.1.0, SVG Export Plug-In . SVG Version: 6.00 Build 0)  -->
<svg version="1.1" id="Layer_1" xmlns="http://www.w3.org/2000/svg" xmlns:xlink="http://www.w3.org/1999/xlink" x="0px" y="0px"
	 viewBox="0 0 52 52" style="enable-background:new 0 0 52 52;" xml:space="preserve">
<style type="text/css">
	.st0{fill:none;}
	.st1{fill:#3D58A6;}
</style>
<rect class="st0" width="52" height="52"/>
<g id="_x23_020201ff_4_">
	<path class="st1" d="M23.6,12.5c1.2-1.1,2.8-1.5,4.4-1.5c1.7,0,3.3,0,5,0c0,1.8,0,3.5,0,5.3c-1.1,0-2.1,0-3.2,0
		c-0.7,0-1.4,0.5-1.5,1.1c0,1.2,0,2.3,0,3.5c1.6,0,3.1,0,4.7,0c-0.1,1.7-0.3,3.4-0.6,5.1c-1.4,0-2.8,0-4.2,0c0,5,0,10,0,15
		c-2.1,0-4.1,0-6.2,0c0-5,0-10,0-15c-1,0-2,0-3,0c0-1.7,0-3.4,0-5c1,0,2,0,3,0c0-1.6,0-3.3,0-4.9C22.2,14.7,22.6,13.4,23.6,12.5z"/>
</g>
</svg>
