<?xml version="1.0" encoding="utf-8"?>
<!-- Generator: Adobe Illustrator 21.1.0, SVG Export Plug-In . SVG Version: 6.00 Build 0)  -->
<svg version="1.1" id="Layer_1" xmlns="http://www.w3.org/2000/svg" xmlns:xlink="http://www.w3.org/1999/xlink" x="0px" y="0px"
	 viewBox="0 0 52 52" style="enable-background:new 0 0 52 52;" xml:space="preserve">
<style type="text/css">
	.st0{fill:none;}
	.st1{fill:#3D58A6;}
</style>
<rect class="st0" width="52" height="52"/>
<path class="st1" d="M29.4,35.4v-3.5c0-0.8-0.2-1.1-0.7-1.1c-0.3,0-0.5,0.1-0.7,0.4v5.1c0.2,0.2,0.5,0.4,0.7,0.4
	C29.2,36.5,29.4,36.1,29.4,35.4L29.4,35.4z M33.6,32.6H35v-0.8c0-0.8-0.2-1.2-0.7-1.2c-0.5,0-0.7,0.4-0.7,1.2V32.6z M20.7,26.6v1.6
	h-1.8v9.5h-1.7v-9.5h-1.8v-1.6H20.7L20.7,26.6z M25.2,29.5v8.3h-1.5v-0.9c-0.6,0.7-1.2,1-1.7,1c-0.5,0-0.8-0.2-0.9-0.6
	c-0.1-0.2-0.1-0.6-0.1-1.2v-6.5h1.5v6.1c0,0.4,0,0.6,0,0.6c0,0.2,0.1,0.3,0.3,0.3c0.3,0,0.6-0.2,0.9-0.7v-6.3L25.2,29.5L25.2,29.5z
	 M30.9,32v3.3c0,0.8-0.1,1.3-0.2,1.6c-0.2,0.6-0.6,0.9-1.2,0.9c-0.5,0-1-0.3-1.5-0.9v0.8h-1.5V26.6H28v3.6c0.5-0.6,1-0.9,1.5-0.9
	c0.6,0,1,0.3,1.2,0.9C30.8,30.6,30.9,31.2,30.9,32z M36.6,34.9v0.2c0,0.4,0,0.8,0,1c0,0.3-0.2,0.6-0.3,0.9c-0.4,0.6-1,0.9-1.8,0.9
	c-0.8,0-1.4-0.3-1.8-0.9c-0.3-0.4-0.5-1.1-0.5-1.9v-2.9c0-0.9,0.2-1.5,0.5-1.9c0.4-0.6,1-0.9,1.8-0.9c0.8,0,1.4,0.3,1.8,0.9
	c0.3,0.4,0.5,1.1,0.5,1.9v1.7h-3v1.5c0,0.8,0.3,1.2,0.8,1.2c0.4,0,0.6-0.2,0.7-0.6c0,0,0-0.1,0-0.2c0-0.1,0-0.2,0-0.4v-0.5
	L36.6,34.9L36.6,34.9z M26.4,16.3v3.5c0,0.8-0.2,1.2-0.7,1.2s-0.7-0.4-0.7-1.2v-3.5c0-0.8,0.2-1.2,0.7-1.2S26.4,15.5,26.4,16.3z
	 M38.4,32.4c0-2.7-0.1-4.6-0.4-5.9c-0.2-0.7-0.5-1.2-1-1.7c-0.5-0.4-1.1-0.7-1.7-0.8c-2-0.2-5.1-0.3-9.3-0.3c-4.1,0-7.2,0.1-9.3,0.3
	c-0.7,0.1-1.2,0.3-1.7,0.8c-0.5,0.4-0.8,1-1,1.7c-0.3,1.3-0.5,3.3-0.5,5.9c0,2.6,0.2,4.6,0.5,5.9c0.2,0.6,0.5,1.2,1,1.6
	c0.5,0.5,1.1,0.7,1.7,0.8c2.1,0.2,5.2,0.3,9.3,0.3c4.1,0,7.2-0.1,9.3-0.3c0.6-0.1,1.2-0.3,1.7-0.8c0.5-0.5,0.8-1,1-1.6
	C38.3,37,38.4,35,38.4,32.4z M21.4,17.7l2-6.7h-1.7l-1.2,4.4L19.4,11h-1.8l0.5,1.6c0,0,0.2,0.5,0.5,1.6c0.5,1.5,0.9,2.7,1,3.6v4.5
	h1.7L21.4,17.7L21.4,17.7z M27.9,19.5v-2.9c0-0.9-0.2-1.5-0.5-2c-0.4-0.6-1-0.9-1.8-0.9c-0.8,0-1.4,0.3-1.8,0.9
	c-0.3,0.4-0.5,1.1-0.5,2v2.9c0,0.9,0.2,1.5,0.5,2c0.4,0.6,1,0.9,1.8,0.9c0.7,0,1.3-0.3,1.8-0.9C27.7,21.1,27.9,20.4,27.9,19.5z
	 M32,22.2h1.5v-8.3H32v6.4c-0.3,0.5-0.6,0.7-0.9,0.7c-0.2,0-0.3-0.1-0.4-0.4c0,0,0-0.2,0-0.6v-6.1h-1.5v6.6c0,0.6,0,1,0.1,1.2
	c0.2,0.4,0.5,0.6,1,0.6c0.5,0,1.1-0.3,1.7-1L32,22.2L32,22.2z"/>
</svg>
