<?xml version="1.0" encoding="utf-8"?>
<!-- Generator: Adobe Illustrator 21.1.0, SVG Export Plug-In . SVG Version: 6.00 Build 0)  -->
<svg version="1.1" id="Layer_1" xmlns="http://www.w3.org/2000/svg" xmlns:xlink="http://www.w3.org/1999/xlink" x="0px" y="0px"
	 viewBox="0 0 52 52" style="enable-background:new 0 0 52 52;" xml:space="preserve">
<style type="text/css">
	.st0{fill:#3D58A6;}
	.st1{fill:none;}
</style>
<g>
	<g>
		<path class="st0" d="M17.4,23V29c0,0,5.8,0,8.1,0c-1.3,3.9-3.2,5.9-8.1,5.9c-4.9,0-8.8-4-8.8-8.9c0-4.9,3.8-8.9,8.8-8.9
			c2.6,0,4.3,0.9,5.8,2.2c1.2-1.2,1.1-1.4,4.3-4.4c-2.7-2.4-6.2-3.9-10.1-3.9c-8.3,0-15,6.7-15,15c0,8.3,6.7,15,15,15
			c12.4,0,15.4-10.8,14.4-18C28.9,23,17.4,23,17.4,23z M44.4,23.3v-5.2h-3.7v5.2h-5.3V27h5.3v5.3h3.7V27h5.2v-3.7H44.4z"/>
	</g>
</g>
<rect class="st1" width="52" height="52"/>
</svg>
